<svg width="18" height="20" viewBox="0 0 18 20" fill="none" xmlns="http://www.w3.org/2000/svg">
<path d="M7.84073 0.000396729H1.59103C1.24586 0.000396729 0.966064 0.280188 0.966064 0.625366V19.3744C0.966064 19.7196 1.24586 19.9994 1.59103 19.9994H7.84073C8.18591 19.9994 8.4657 19.7196 8.4657 19.3744V0.625366C8.4657 0.280188 8.18587 0.000396729 7.84073 0.000396729ZM7.21576 18.7495H2.216V16.8746H5.34085V15.6246H2.216V13.7497H4.09091V12.4998H2.216V10.6249H5.34085V9.37494H2.216V7.50003H4.09091V6.25009H2.216V4.37518H5.34085V3.12524H2.216V1.25034H7.21576V18.7495Z" fill="#B17955"/>
<path d="M16.1528 15.8122L14.0904 17.8684V2.13165L16.1465 4.1878L17.0278 3.3066L13.9029 0.181749C13.6591 -0.060583 13.2655 -0.060583 13.0217 0.181749L9.89685 3.3066L10.7781 4.1878L12.8405 2.13165V17.8684L10.7843 15.8122L9.9031 16.6934L13.0279 19.8183C13.2717 20.0606 13.6654 20.0606 13.9092 19.8183L17.034 16.6934L16.1528 15.8122Z" fill="#B17955"/>
</svg>
